<svg width="15" height="17" viewBox="0 0 15 17" fill="none" xmlns="http://www.w3.org/2000/svg">
<path d="M14.4643 1.06251H10.4464L10.1317 0.441607C10.065 0.308866 9.96233 0.197207 9.83515 0.119191C9.70798 0.0411758 9.56137 -0.000100538 9.41183 5.82141e-06H5.58482C5.43562 -0.000562966 5.28927 0.0405594 5.16255 0.118662C5.03582 0.196764 4.93385 0.308687 4.8683 0.441607L4.55357 1.06251H0.535714C0.393634 1.06251 0.257373 1.11848 0.156907 1.2181C0.0564412 1.31773 0 1.45286 0 1.59376L0 2.65626C0 2.79715 0.0564412 2.93228 0.156907 3.03191C0.257373 3.13153 0.393634 3.1875 0.535714 3.1875H14.4643C14.6064 3.1875 14.7426 3.13153 14.8431 3.03191C14.9436 2.93228 15 2.79715 15 2.65626V1.59376C15 1.45286 14.9436 1.31773 14.8431 1.2181C14.7426 1.11848 14.6064 1.06251 14.4643 1.06251ZM1.78125 15.5059C1.8068 15.9105 1.98688 16.2902 2.28484 16.5678C2.5828 16.8454 2.97623 16.9999 3.38504 17H11.615C12.0238 16.9999 12.4172 16.8454 12.7152 16.5678C13.0131 16.2902 13.1932 15.9105 13.2187 15.5059L13.9286 4.25H1.07143L1.78125 15.5059Z" fill="#20486A"/>
</svg>
